<svg xmlns="http://www.w3.org/2000/svg" version="1.1" xmlns:xlink="http://www.w3.org/1999/xlink" xmlns:svgjs="http://svgjs.dev/svgjs" width="2560" height="1440" preserveAspectRatio="none" viewBox="0 0 2560 1440"><g mask="url(&quot;#SvgjsMask1044&quot;)" fill="none"><rect width="2560" height="1440" x="0" y="0" fill="rgba(42, 42, 42, 1)"></rect><circle r="20.93" cx="2105.14" cy="558.76" filter="url(#SvgjsFilter1045)" fill="rgba(255, 255, 255, 1)"></circle><circle r="12.19" cx="2397.46" cy="1245.03" filter="url(#SvgjsFilter1045)" fill="rgba(255, 255, 255, 1)"></circle><circle r="12.38" cx="256.56" cy="823.31" filter="url(#SvgjsFilter1045)" fill="rgba(250, 143, 17, 1)"></circle><circle r="23.5" cx="1484.05" cy="63.18" filter="url(#SvgjsFilter1045)" fill="rgba(255, 255, 255, 1)"></circle><circle r="21.52" cx="127.46" cy="500.88" filter="url(#SvgjsFilter1045)" fill="rgba(255, 255, 255, 1)"></circle><circle r="13.475" cx="2205.205" cy="945.005" filter="url(#SvgjsFilter1045)" fill="rgba(250, 143, 17, 1)"></circle><circle r="17.79" cx="553.39" cy="1089.75" filter="url(#SvgjsFilter1045)" fill="rgba(250, 143, 17, 1)"></circle><circle r="18.345" cx="1699.385" cy="1011.825" filter="url(#SvgjsFilter1045)" fill="rgba(250, 143, 17, 1)"></circle><circle r="16.44" cx="2068.39" cy="57.39" filter="url(#SvgjsFilter1045)" fill="rgba(250, 143, 17, 1)"></circle><circle r="21.04" cx="222.66" cy="746.2099999999999" filter="url(#SvgjsFilter1045)" fill="rgba(250, 143, 17, 1)"></circle><circle r="16.265" cx="352.055" cy="1228.1650000000002" filter="url(#SvgjsFilter1045)" fill="rgba(250, 143, 17, 1)"></circle><circle r="19.475" cx="1274.2949999999998" cy="225.67499999999998" filter="url(#SvgjsFilter1045)" fill="rgba(250, 143, 17, 1)"></circle><circle r="12.95" cx="1752.55" cy="392.65" filter="url(#SvgjsFilter1045)" fill="rgba(255, 255, 255, 1)"></circle><circle r="13.825" cx="2313.145" cy="703.4150000000001" filter="url(#SvgjsFilter1045)" fill="rgba(255, 255, 255, 1)"></circle><circle r="22.79" cx="1105.57" cy="836.68" filter="url(#SvgjsFilter1045)" fill="rgba(255, 255, 255, 1)"></circle><circle r="19.115" cx="2528.865" cy="282.185" filter="url(#SvgjsFilter1045)" fill="rgba(255, 255, 255, 1)"></circle><circle r="16.81" cx="1670.4299999999998" cy="399.92" filter="url(#SvgjsFilter1045)" fill="rgba(250, 143, 17, 1)"></circle><circle r="13.54" cx="57.78" cy="810.02" filter="url(#SvgjsFilter1045)" fill="rgba(250, 143, 17, 1)"></circle><circle r="19.345" cx="2006.255" cy="1246.845" filter="url(#SvgjsFilter1045)" fill="rgba(255, 255, 255, 1)"></circle><circle r="12.465" cx="1810.465" cy="637.085" filter="url(#SvgjsFilter1045)" fill="rgba(250, 143, 17, 1)"></circle><path d="M552.6 832.2L531.5 803.4 555.3 799.9C557.8 799.8 560.2 797.1 560.5 793.5 559.3 790.5 556.6 788.1 554.1 788.3L522.7 792.2 503.3 765.3 567.1 758C571.1 757.2 573.5 754.5 572.3 751.5 572.6 747.9 569.9 745.6 565.9 746.3L495.5 754.5 477.3 730.6 504.6 666.8 530.9 663.2 575.3 724.3C576.3 724.8 577.4 725.2 578.4 725.7 579.5 726.1 582 726 583.5 725.4 586.9 723.1 587.2 719.6 584.5 717.2L544.1 661.4 576.5 658 598 685.8C597.5 686.8 598.6 687.3 599.6 687.7 601.7 688.6 604.3 688.5 606.2 686.8 608.2 685.2 608.4 681.6 607.3 678.6L589.6 656.2 630.1 651.3C632.7 651.1 635 648.4 635.3 644.9 634.1 641.9 631.5 639.5 628.9 639.6L591 644.4 600.4 622.5C601.7 619.3 599.5 615.9 597.4 615 594.3 613.6 590.2 614.4 588.9 617.5L576.8 645.8 544.4 649.2 569.5 590.6C570.8 587.5 569.6 584.5 566.5 583.2 563.3 581.8 560.3 583 559 586.1L531.2 651 503.4 655.2 461.9 599 472.2 574.9 544.1 566.1C547.6 566.4 550.5 562.7 549.3 559.7 549.6 556.1 546.5 554.8 542.9 554.5L477.6 562.4 490.6 532.1 523 528.6C525.5 528.5 528.4 524.7 528.2 522.2S524.3 516.8 520.8 516.5L496 519.5 511.6 482.9C513 479.8 510.7 476.3 507.6 475 505.5 474.1 501.5 474.8 500.1 478L484.5 514.6 468.5 494.1C466.8 492.2 463.7 490.8 460.3 493.1 458.3 494.7 457.6 499.3 459.2 501.3L479.1 527.1 466.1 557.5 426.8 504.7C424.1 502.3 421 501 417.5 503.2 415.6 504.9 414.8 509.5 416.5 511.4L460.7 570 450.4 594.1 381.1 602.7 364.9 579.7 392.7 514.9C394.1 511.7 392.9 508.8 389.7 507.4 386.6 506.1 382.6 506.8 381.2 509.9L356.1 568.5 336.3 542.7 348.4 514.4C349.7 511.3 348.5 508.3 345.4 507 342.2 505.6 339.2 506.8 337.9 509.9L328.5 531.9 305.8 501.1C304.1 499.2 299.5 498.4 297.6 500.1 295.2 502.8 293.8 505.9 296.5 508.3L319.8 540.6 292.5 543.7C289.5 544.9 287.1 547.6 287.2 550.1 287.4 552.7 289 554.6 291.1 555.5 291.1 555.5 292.2 556 293.7 555.4L328.6 551.8 348.5 577.6 280.2 586.7C276.6 586.4 274.2 589.1 275 593.2 275.6 594.7 276.2 596.1 278.3 597 279.3 597.5 280.4 597.9 281.4 598.4L356.3 588.4 371.8 609.9 344.5 673.7 314.6 677 272 620.4C269.8 616.9 266.2 616.6 263.8 619.3 260.8 620.5 260.5 624.1 262.7 627.5L301.4 678.8 268.6 683.2 249.7 657.8C248.1 655.9 244.5 655.6 241.5 656.8 239.1 659.5 237.8 662.6 240.5 665L254.4 684.6 219 689.2C215.4 688.9 214 692.1 213.7 695.6 214.3 697.1 216 699.1 218.1 700 218.1 700 219.1 700.4 220.2 700.9L258.1 696.1 246.9 722.2C246 724.3 246.8 728.4 249.9 729.7 253 731.1 256.5 728.8 257.4 726.7L271.3 694.3 304.1 689.8 276.8 753.6C275.4 756.8 277.7 760.2 280.8 761.5S286.9 761.7 288.3 758.5L318.3 688.5 345.7 685.3 387.2 741.5 375.5 768.7 302.6 777.1C299.6 778.3 297.3 781 297 784.5 297.6 786 299.2 788 301.3 788.9 302.3 789.3 303.4 789.8 304.9 789.2L370.2 781.3 357.2 811.6 324.3 816.1C321.8 816.2 319.4 818.9 319.1 822.5 320.3 825.5 322.9 827.9 325.5 827.7L351.8 824.1 337.4 857.6C336.5 859.7 338.3 864.2 340.4 865.1 343.6 866.4 348 864.6 348.9 862.5L363.3 829.1 377.8 850.1C378.8 850.6 379.9 851 380.9 851.5 383 852.4 385.5 852.2 387 851.6 389.4 848.9 389.7 845.3 388.5 842.4L368.7 816.5 381.7 786.2 421 838.9C423.2 842.4 426.8 842.7 428.7 841 432.2 838.8 432.5 835.2 431.3 832.2L387 773.6 398.7 746.4 468 737.8 484.6 759.7 454.6 829.8C453.2 832.9 454.4 835.9 457.6 837.3 460.7 838.6 463.7 837.4 465 834.3L492.4 770.5 511.8 797.4 497.9 829.8C497 831.9 498.8 836.4 501.9 837.7 505.1 839.1 508.5 836.8 509.4 834.7L520.6 808.6 543.3 839.4C544.4 839.8 544.4 839.8 545.4 840.3 547.5 841.2 550 841 551.5 840.4 553.9 837.7 554.2 834.1 552.6 832.2ZM404.1 733.9L396.5 734.3 392.6 729 358.8 683.5 354.9 678.2 357.6 671.9 379.6 620.7 382.3 614.4 388.8 613.5 445 606.6 451.6 605.7 456.5 611.5 489.2 656.5 494.2 662.3 491.5 668.6 469.5 719.9 466.8 726.1 459.2 726.6 404.1 733.9Z" fill="rgba(250, 143, 17, 1)"></path><path d="M647.9 274.1L691 288.4 698.1 303.3 683.6 298.5C682.1 297.5 680.7 298.6 679.8 300.1 679.6 301.3 680.4 303.2 681.7 303.4L701.6 310.4 709 324.9 692.8 323.7 678.9 307.6C678.9 307.6 678.4 307.3 678.4 307.3 677.4 306.7 675.9 307 674.7 307.6 673.8 309.1 673.6 310.3 674.8 311.8L684.9 323.2 668.6 322 638.4 288.3C638.4 288.3 638.3 287.5 638.3 287.5 637.3 286.9 635.7 287.2 634.6 287.8 633.2 289 633.2 291 634.6 291.9L660.7 321.6 640.8 320.7 629.1 307.4C629.1 307.4 629.1 307.4 628.7 307.1 627.7 306.5 626.5 306.3 625.4 307 624.4 308.4 623.9 310.1 625.1 311.5L633 320.2 618.4 319.4C616.7 319 615.8 320.4 615.6 321.6 615.1 323.4 616.2 324.8 618.3 324.8L632.5 326 623.7 333.1C622.7 334.6 622.3 336.3 623.7 337.3 624.8 338.7 626.1 338.8 627.5 337.7L640.7 326 660.3 327.4 630.3 354C629.2 354.6 629.2 356.6 630.4 358.1 631.3 358.7 633 359.2 634.5 358.1L668.2 327.9 684.4 329.1 672.9 339.2C671.5 340.3 671.8 341.9 672.9 343.3 673.6 344.4 675.6 344.4 676.7 343.8L692.3 329.5 708.9 330.3 699.7 344 679.2 348.2C677.7 348.5 676.7 349.9 677 351.5 676.9 352.8 678.8 354 680.4 353.7L695.3 350.7 686.2 364.4 641.6 373C640 373.4 639.1 374.8 639.4 376.4 639.7 377.9 641.1 378.9 642.7 378.6L681.8 371.1 671.1 387.2 653.8 390.7C652.2 391 651.2 392.4 651.6 394 651.9 395.6 653.3 396.5 654.9 396.2L666.4 394.3 658.5 406.1C657.6 407.6 657.9 409.1 659.3 410.1 660.7 411 662.3 410.7 663.3 409.3L671.1 397.4 673.4 408.5C673.7 410.1 675.1 411 676.7 410.7S679.2 408.9 678.9 407.4L675.5 390.8 686.6 374.2 694.4 412.9C694.7 414.4 696.1 415.4 697.7 415.1 699.3 414.7 700.2 413.3 699.9 411.7L691 367.6 700.1 353.8 703.1 368.8C703.4 370.4 704.8 371.3 706.4 371 708 370.7 708.9 369.3 708.6 367.7L704.5 347.2 713.3 333.9 720.3 348.1 713.7 368.3C713.5 369.6 714.3 371.5 715.6 371.6 717.3 372.1 718.4 371.5 719.4 370L724.2 355.5 731.2 369.7 716.9 412.8C716.4 414.5 717.1 415.6 718.5 416.6 720.2 417.1 721.7 416 722.3 415L735.2 377.1 743.7 395.1 738.4 411.3C737.4 412.8 738.5 414.2 740 415.1 741.2 415.3 743.1 414.5 743.6 412.8L747.2 402.2 753.8 414.8C754.2 416.4 755.9 416.8 757.8 416 758.9 415.4 759.4 413.7 758.7 412.6L752.4 399.5 763.4 403.4C765.2 403.9 766.6 402.8 766.8 401.5 767.7 400.1 767.1 399 766.1 398.4 765.6 398 765.6 398 765.2 397.7L748.9 392.4 740.4 374.4 777.8 387C779.2 387.9 780.6 386.8 781.6 385.4 781.7 384.1 781.1 383 780.1 382.4 779.7 382.1 779.7 382.1 779.7 382.1L736.4 367 729.4 352.8 744 357.7C745.7 358.2 746.8 357.5 747.7 356.1 747.9 354.8 747.6 353.3 746.6 352.6 746.2 352.3 746.2 352.3 745.7 352L725.5 345.4 718.5 331.2 734.3 332.1 748.5 347.7C749.6 349.2 751.7 349.2 752.8 348.5 753.7 347.1 754.2 345.4 752.8 344.4L742.6 332.9 758.7 333.4 789.1 367.9C789.7 369 791.8 369 792.9 368.3 793.8 366.9 794.3 365.2 793.2 363.7L767.1 334.1 786.7 335.5 797.9 348.4C799 349.9 801.1 349.8 802 348.4 803.1 347.8 803.6 346.1 802.5 344.6L794.6 336 809.1 336.7C810.3 336.9 811.8 335.8 812.2 334 812.1 333.3 811.4 332.2 810.5 331.5 810.5 331.5 810 331.2 809.5 330.9L795 330.1 803.7 322.2C804.8 321.6 804.8 319.5 804.1 318.4 803.7 318.1 803.7 318.1 803.7 318.1 802.3 317.2 800.7 317.5 800 318.5L787.1 329.7 767.2 328.8 797.2 302.2C798.1 300.8 798.3 299.5 797.2 298.1 797.2 298.1 796.7 297.8 796.7 297.8 795.7 297.2 794.5 297 793.1 298.1L758.9 328 743.1 327.1 754.6 317C755.5 315.5 756 313.8 754.6 312.9 754.9 312.4 754.4 312.1 754.4 312.1 753.5 311.4 751.9 311.8 750.8 312.4L735.2 326.6 719 325.4 727.8 312.1 748.3 308C749.9 307.7 751.1 305.8 750.8 304.2 750.2 303.1 748.7 302.1 747.5 302L732.2 305.5 741.3 291.7 785.5 282.8C787 282.5 788 281.1 787.7 279.5 787.3 277.9 785.9 277 784.3 277.3L745.7 285.1 756.7 268.5 773.3 265.2C774.9 264.9 775.8 263.4 775.5 261.9S773.7 259.3 772.2 259.7L761.1 261.9 769 250C769.9 248.6 769.6 247 768.2 246.1 766.8 245.1 765.2 245.5 764.3 246.9L756.4 258.7 753.7 247.4C753.5 246.6 753.4 245.8 752.9 245.5 752.4 245.2 751.2 245 750.4 245.2 748.8 245.5 747.8 246.9 748.2 248.5L752 265.4 741 282 732.7 243C732.5 242.2 732.4 241.4 731.9 241.1 731.4 240.8 730.2 240.6 729.4 240.8 727.8 241.1 726.8 242.5 727.2 244.1L736.6 288.6 727.4 302.3 724.7 286.9C724.6 286.1 723.6 285.5 723.1 285.1 722.7 284.8 722.2 284.5 721.4 284.7 719.8 285 718.6 286.9 719.2 288L723 309 714.2 322.2 706.8 307.7 713.8 287.8C714 286.6 713.7 285 712.7 284.4 712.3 284.1 712.3 284.1 711.9 284.5 710.5 283.6 708.6 284.4 708.2 286.1L703.3 300.7 695.8 286.1 710.9 242.9C711.1 241.6 710.4 240.5 709.5 239.9 709 239.6 709 239.6 709 239.6 707.3 239.1 705.7 239.4 705.2 241.2L692.4 279.1 683.8 261.1 689.1 244.8C689.6 243.1 689 242 688 241.4 688 241.4 687.6 241 687.6 241 685.8 240.6 684.4 241.7 683.8 242.6L680.3 254 674 240.9C673.5 240.6 673 240.3 672.6 240 672.1 239.6 670.8 239.5 670 239.7 668.6 240.8 667.7 242.2 668.8 243.6L675.1 256.7 664.1 252.8C662.3 252.3 660.9 253.4 660.3 254.3 659.8 256.1 660.9 257.5 662.3 258.4L678.6 263.8 687.5 281.3 650.1 268.7C648.3 268.3 646.4 269 646.3 270.3 645.8 272 646.1 273.6 647.9 274.1Z" fill="rgba(255, 255, 255, 1)"></path><path d="M1375.2 890.3L1358.6 926.5 1343.9 907.5C1342.5 905.4 1339 904.6 1335.7 906.1 1333.7 908.7 1332.9 912.2 1335.5 914.2L1353.1 938.6 1341.4 967.3 1304.8 916.5C1302.3 914.5 1298.8 913.7 1296.6 915.1 1293.5 917.7 1292.7 921.2 1295.3 923.3L1335.9 979.4 1316.7 1022.8 1289.6 975.4 1273.7 1027.6 1245.4 989.5 1272.6 925.8C1273.8 925.7 1273.6 924.5 1273.5 923.4 1273.3 921.1 1271.9 919 1269.5 918.1 1267.1 917.2 1263.8 918.8 1261.8 921.3L1237.4 978.9 1219.6 953.5 1231.4 925.8C1232.4 924.5 1232.3 923.4 1232.2 922.3 1232.1 921.2 1230.7 919 1228.3 918.1 1225.9 917.3 1222.6 918.8 1221.8 921.2L1211.6 942.9 1187.4 911.3C1185.9 908 1182.5 908.4 1179.3 909.9 1177.1 911.3 1176.4 914.8 1179 917.9L1202 949.7 1178.3 952.3C1174.9 952.7 1173 956.4 1173.3 958.6 1173.7 962 1176.2 964 1179.6 963.7L1210.1 960.2 1227.8 985.7 1166.8 992.6C1163.4 992.9 1161.4 995.4 1161.7 998.8 1162 1001.1 1164.6 1004.2 1168 1003.9L1235.9 996.3 1264.2 1034.3 1210.4 1034.6 1246.8 1074.1 1199.3 1079.4 1158.9 1024.3C1156.2 1021.2 1152.8 1021.6 1150.7 1023 1148.6 1024.4 1147.8 1027.9 1149.3 1031.1L1186.9 1080.7 1156.4 1084.2 1137.6 1059.9C1136.1 1056.7 1132.6 1055.9 1129.5 1058.5 1127.3 1059.9 1126.6 1063.4 1129.2 1066.6L1142.8 1085.7 1103.2 1090.1C1099.8 1090.5 1097.8 1093 1098.2 1096.4S1101.1 1101.8 1104.5 1101.4L1144.1 1097 1135 1118.6C1133.2 1122.2 1134.7 1125.5 1137.1 1126.4 1140.7 1128.3 1144 1126.8 1144.7 1123.2L1157.6 1095.5 1188.2 1092.1 1162.4 1148.7C1161.7 1152.3 1163.2 1155.5 1165.6 1156.4 1169.2 1158.3 1172.5 1156.8 1173.3 1153.3L1200.6 1090.7 1248.1 1085.4 1221.2 1131.9 1273.8 1120.3 1254.5 1163.6 1186.7 1171.2C1183.3 1171.6 1181.4 1175.2 1181.7 1177.5 1182.1 1180.9 1184.6 1182.9 1188 1182.5L1250.2 1175.6 1237.4 1204.5 1206.8 1207.9C1203.4 1208.3 1201.4 1210.8 1201.8 1214.2 1202.1 1216.4 1204.7 1219.6 1208.1 1219.2L1231.8 1216.5 1216.4 1252.6C1214.5 1256.3 1216 1259.5 1219.5 1260.3 1221.9 1261.2 1225.3 1260.8 1226.1 1257.3L1242.6 1221.1 1257.4 1240C1258.7 1242.2 1262.3 1242.9 1264.4 1241.5 1266.5 1240.2 1267.4 1237.8 1267.3 1236.6 1267.2 1235.5 1267 1234.4 1265.8 1233.4L1248.2 1209 1259.8 1180.2 1296.4 1231.1C1298.9 1233.1 1302.5 1233.9 1304.6 1232.5 1306.7 1231.1 1307.6 1228.7 1307.4 1226.4 1307.2 1225.3 1307.2 1225.3 1306 1224.3L1265.4 1168.2 1284.6 1124.8 1311.6 1172.2 1327.5 1120 1355.8 1158.1 1328.6 1221.8C1327.7 1224.2 1328.1 1227.6 1331.7 1229.4 1334.1 1230.3 1337.4 1228.8 1339.4 1226.3L1363.9 1168.6 1381.6 1194.1 1369.8 1221.8C1367.8 1224.3 1369.3 1227.5 1372.9 1229.4 1375.3 1230.3 1378.6 1228.8 1380.6 1226.3L1389.6 1204.7 1413.8 1236.3C1415.3 1239.6 1418.7 1239.2 1421.9 1237.7 1423 1236.4 1423.8 1234 1423.7 1232.9 1423.6 1231.8 1423.5 1230.6 1422.2 1229.6L1399.2 1197.9 1422.9 1195.2C1426.3 1194.8 1428.2 1191.2 1428 1188.9L1428 1188.9C1427.6 1185.5 1425.1 1183.5 1421.7 1183.9L1391.1 1187.3 1373.4 1161.8 1434.5 1155C1437.9 1154.6 1439.9 1152.1 1439.5 1148.7S1436.6 1143.3 1433.2 1143.7L1365.4 1151.3 1337.1 1113.2 1390.8 1112.9 1354.4 1073.5 1401.9 1068.2 1442.4 1123.2C1445 1126.4 1448.4 1126 1450.5 1124.6 1452.7 1123.2 1453.4 1119.7 1451.9 1116.4L1415.5 1066.7 1444.9 1063.4 1463.6 1087.6C1465.1 1090.9 1468.6 1091.7 1471.8 1089 1473.9 1087.6 1474.6 1084.1 1473.1 1080.9L1458.4 1061.9 1498 1057.5C1501.4 1057.1 1503.4 1054.6 1503 1051.2S1500.1 1045.8 1496.7 1046.2L1457.2 1050.6 1466.2 1029C1467.2 1027.7 1467.1 1026.6 1466.9 1025.4 1466.7 1023.2 1465.4 1022.2 1464.2 1021.2 1460.5 1019.3 1457.3 1020.8 1456.5 1024.3L1443.6 1052.1 1413.1 1055.5 1438.8 998.8C1438.7 997.7 1438.5 996.6 1438.4 995.4 1438.2 993.2 1436.9 992.2 1435.6 991.2 1432 989.3 1428.7 990.8 1428 994.3L1400.6 1056.9 1353.1 1062.2 1380 1015.7 1327.5 1027.3 1346.7 983.9 1414.5 976.3C1417.9 976 1419.8 972.3 1419.5 970.1 1419.2 966.7 1416.7 964.7 1413.3 965L1352.2 971.9 1363.9 943.1 1394.4 939.7C1397.8 939.3 1399.8 936.8 1399.4 933.4S1396.5 928 1393.1 928.4L1369.4 931 1384.8 894.9C1385.8 893.7 1385.7 892.6 1385.6 891.4 1385.5 890.3 1384.1 888.2 1381.7 887.3 1379.3 886.4 1375.9 886.8 1375.2 890.3ZM1357.8 1031.9L1335.7 1069.9 1365.6 1102 1321 1102.4 1308.4 1143.9 1285.9 1106.3 1243.5 1115.6 1265.6 1077.7 1235.6 1045.5 1279.1 1045.3 1292.8 1003.7 1314.2 1041.4 1357.8 1031.9Z" fill="rgba(250, 143, 17, 1)"></path><path d="M2332.3 683.8L2354.5 716.8 2330.6 719.4C2328.1 719.5 2325.6 722.1 2325.2 725.7 2326.3 728.7 2328.9 731.2 2331.9 730.1L2361.9 727.8 2380.3 752.8 2317.9 757.4C2314.8 758.5 2312.4 761.1 2312.4 763.7 2313 767.7 2315.6 770.2 2318.7 769.1L2387.8 763.8 2414.7 802.8 2360.2 801.2 2396.3 842 2349.1 846.2 2309 789.7C2309.5 788.7 2308.5 788.2 2307.4 787.7 2305.4 786.8 2302.8 786.8 2300.8 788.4 2298.8 790 2298.4 793.5 2299.5 796.6L2335.9 847.6 2304.9 849.4 2287.5 824.9C2286.9 823.4 2285.9 822.9 2284.9 822.4 2283.9 821.9 2281.3 822 2279.3 823.6 2277.3 825.1 2276.9 828.7 2278.5 830.7L2291.7 850.7 2252.1 854.8C2248.5 854.4 2247.1 857.4 2246.7 861 2246.7 863.6 2249.3 866 2253.4 865.4L2292.5 862.4 2282.4 884C2280.9 887.1 2283 890.6 2285.1 891.6 2288.2 893.1 2291.2 892 2292.7 888.9L2305.7 861.1 2336.7 859.3 2310.6 914.9C2309.2 918 2310.3 921 2313.4 922.5 2315.4 923.4 2319.5 922.8 2320.9 919.7L2349.9 857.9 2397.1 853.7 2369.3 899.7 2422 889.2 2401.7 932.4 2333.6 938.2C2329.6 938.8 2328.1 941.9 2328.2 944.5 2328.2 947 2330.8 949.5 2334.4 949.9L2396.4 943.8 2383.3 971.6 2352.9 974.9C2349.3 974.5 2346.8 977.1 2347.4 981.1 2347.5 983.7 2350.1 986.2 2354.2 985.6L2377.5 983.9 2360.6 1020C2359.2 1023.1 2360.3 1026.1 2363.4 1027.6S2369.5 1027.9 2370.9 1024.8L2387.8 988.8 2401.5 1007.8C2403.7 1011.3 2407.2 1011.7 2409.2 1010.1 2412.7 1008 2413.2 1004.4 2410.6 1001.9L2393.6 976.4 2406.7 948.6 2441.6 1000.1C2444.2 1002.6 2447.7 1003 2449.7 1001.5 2453.2 999.3 2453.7 995.8 2451.1 993.3L2412 937.3 2432.3 894 2457.9 941.2 2475.4 890.4 2502.4 929.4 2473.4 991.2C2472 994.3 2474.1 997.8 2476.1 998.8 2479.2 1000.2 2482.3 999.1 2483.7 996L2510.3 939.4 2528.2 965.4 2515.2 993.2C2513.7 996.3 2514.8 999.3 2517.9 1000.8 2520 1001.7 2524 1001.1 2525.5 998L2535.6 976.4 2558.3 1008.4C2560.5 1011.9 2564 1012.3 2566.5 1009.7 2568.5 1008.1 2569.9 1005.1 2567.3 1002.6L2545.1 969.5 2569 966.9C2571.5 966.8 2574 964.2 2573.9 961.7 2573.9 959.1 2572.3 957.1 2571.3 956.7 2570.2 956.2 2569.2 955.7 2567.7 956.2L2537.7 958.5 2519.3 933.5 2581.8 928.9C2584.8 927.8 2587.3 925.2 2587.2 922.7 2587.1 920.1 2585.6 918.1 2583.5 917.2 2582.5 916.7 2582.5 916.7 2581 917.2L2511.9 922.5 2484.9 883.5 2539.4 885.2 2503.3 844.4 2550.5 840.1 2590.6 896.6C2592.2 898.6 2595.3 900.1 2598.8 897.9 2600.8 896.4 2601.2 892.8 2600.1 889.8L2563.7 838.8 2594.7 837 2612.1 861.5C2613.2 864.5 2616.8 864.9 2620.3 862.8 2622.3 861.2 2622.7 857.6 2621.6 854.6L2607.9 835.6 2647.5 831.6C2651.1 832 2652.5 828.9 2653 825.3 2652.4 823.8 2650.8 821.8 2649.8 821.3 2648.8 820.8 2647.7 820.4 2646.2 820.9L2607.1 823.9 2617.3 802.3C2618.7 799.2 2616.6 795.7 2614.5 794.7L2614.5 794.7C2611.4 793.3 2608.4 794.4 2607 797.5L2593.9 825.3 2562.9 827.1 2589 771.5C2590.4 768.4 2589.4 765.3 2586.3 763.9S2580.1 763.5 2578.7 766.6L2549.7 828.4 2502.5 832.7 2530.3 786.7 2477.7 797.2 2498 753.9 2566 748.1C2570.1 747.5 2571.5 744.4 2571.5 741.9 2571.4 739.3 2568.8 736.8 2565.2 736.4L2503.7 741.5 2516.3 714.8 2546.8 711.4C2550.3 711.9 2552.8 709.3 2552.2 705.2 2552.1 702.7 2549.5 700.2 2546 699.8L2522.1 702.4 2539 666.3C2540.5 663.2 2539.4 660.2 2536.3 658.8S2530.2 658.4 2528.7 661.5L2511.8 697.6 2498.1 678.6C2497.5 677.1 2496.5 676.6 2495.5 676.1 2493.4 675.1 2491.9 675.7 2490.4 676.2 2486.9 678.3 2486.5 681.9 2489.1 684.4L2506 709.9 2493 737.7 2458.1 686.2C2457 685.7 2456 685.2 2455 684.7 2452.9 683.8 2451.4 684.3 2449.9 684.9 2446.4 687 2446 690.6 2448.6 693.1L2487.7 749.1 2467.4 792.3 2441.7 745.1 2424.2 796 2397.3 757 2426.2 695.1C2427.7 692.1 2425.6 688.5 2423.5 687.6 2420.4 686.1 2417.4 687.2 2415.9 690.3L2389.8 745.9 2371.4 721 2384.4 693.1C2385.9 690.1 2384.8 687 2381.7 685.6S2375.6 685.2 2374.1 688.3L2364 709.9 2341.3 677.9C2340.8 676.4 2339.7 675.9 2338.7 675.5 2337.7 675 2335.1 675 2333.1 676.6 2331.1 678.2 2329.7 681.3 2332.3 683.8ZM2444 772.6L2464.8 811.2 2507.8 802.5 2484.9 840.8 2513.7 873.1 2469.9 872.7 2455.7 913.8 2434.8 875.1 2391.8 883.8 2414.3 846.6 2385.9 813.2 2429.2 814.7 2444 772.6Z" fill="rgba(255, 255, 255, 1)"></path><path d="M2020.3 1376.3L1946.6 1317.2 1938 1233.6 2014.8 1267.8 2047.9 1356.2C2047.9 1356.2 2048.6 1357.2 2048.6 1357.2 2049.9 1359 2053.1 1359.5 2055.6 1359.1 2059 1358 2060.5 1354.2 2058.5 1351.4L2029.3 1274.2 2066.5 1290.8 2079.9 1324.7C2079.9 1324.7 2080.5 1325.6 2080.5 1325.6 2081.9 1327.4 2085 1327.9 2087.5 1327.5 2091 1326.4 2092.4 1322.6 2090.4 1319.8L2081.9 1296.5 2109.2 1309C2111.5 1310.2 2115.9 1308.4 2117 1306.2 2119.1 1303.2 2116.5 1299.6 2114.2 1298.4L2086.9 1285.9 2110.2 1277.4C2113.7 1276.3 2115.1 1272.5 2113.1 1269.7 2112 1266.3 2108.2 1264.8 2105.4 1266.8L2071.5 1280.2 2035.1 1262.9 2112.3 1233.7C2115.7 1232.6 2117.2 1228.8 2115.2 1226 2114.1 1222.6 2110.3 1221.2 2107.5 1223.2L2019.1 1256.3 1942.3 1222 2011.4 1172 2105.1 1186.9C2108.3 1187.5 2111.1 1185.4 2111.6 1182.3 2112.1 1179.1 2110.1 1176.3 2106.9 1175.8L2024.3 1162.6 2057.5 1138.6 2092.4 1144.2C2095.6 1144.7 2098.4 1142.7 2098.9 1139.5 2099.4 1136.3 2097.4 1133.6 2094.2 1133.1L2070.4 1129.2 2096.2 1110.6C2099.6 1109.5 2099.4 1105.4 2097.4 1102.6 2095.4 1099.8 2092.2 1099.3 2089.5 1101.3L2065.5 1118.7 2069.3 1094.9C2069.8 1091.7 2067.8 1088.9 2064.7 1088.4S2058.7 1089.9 2058.2 1093.1L2052.6 1128 2019.5 1152.1 2032.7 1069.4C2033.2 1066.3 2031.2 1063.5 2028 1063 2024.8 1062.5 2022 1064.5 2021.5 1067.7L2006.6 1161.4 1938.4 1210.8 1929.7 1127.1 1987.6 1055.7C1989.7 1052.8 1988.6 1049.4 1986.6 1046.6 1983.7 1044.5 1980.3 1045.6 1977.5 1047.6L1925.7 1111.8 1921.6 1071.2 1944.8 1043.2C1946.9 1040.3 1945.8 1036.8 1943.8 1034.1 1940.9 1032 1937.4 1033 1935.6 1034.4L1920.3 1053.9 1916.9 1024.1C1916.5 1021.5 1913.8 1017.9 1910.4 1018.9 1906.9 1020 1904.2 1022 1905.3 1025.5L1908.6 1055.3 1889.1 1040C1886.2 1037.9 1882.7 1039 1880.9 1040.3 1879.7 1042.6 1879.2 1045.7 1880.5 1047.6 1880.5 1047.6 1881.2 1048.5 1881.2 1048.5L1909.3 1071.7 1913.4 1112.3 1849.1 1060.5C1846.2 1058.4 1842.8 1059.5 1840.9 1060.8 1839.8 1063.1 1839.3 1066.2 1840.6 1068.1 1840.6 1068.1 1841.3 1069 1841.3 1069L1914.9 1128 1923.6 1211.7 1846.7 1177.4 1813.6 1089C1812.5 1085.6 1808.7 1084.2 1805.9 1086.2 1802.5 1087.2 1801.1 1091.1 1803.1 1093.9L1832.3 1171 1795 1154.5 1781.7 1120.6C1780.6 1117.2 1776.8 1115.7 1774 1117.7 1770.6 1118.8 1769.1 1122.7 1771.1 1125.4L1779.6 1148.8 1752.3 1136.3C1750 1135.1 1745.7 1136.8 1744.5 1139.1 1743.3 1141.3 1743.8 1143.9 1745.1 1145.7 1745.8 1146.6 1746.4 1147.5 1748 1147.8L1775.3 1160.3 1752 1168.8C1748.6 1169.9 1747.1 1173.7 1749.1 1176.5 1749.1 1176.5 1749.8 1177.4 1749.8 1177.4 1751.1 1179.3 1754.3 1179.8 1756.8 1179.3L1790.7 1166 1828 1182.6 1750.8 1211.8C1747.4 1212.9 1746 1216.7 1748 1219.5 1748 1219.5 1748.6 1220.4 1748.6 1220.4 1750 1222.2 1753.1 1222.8 1755.7 1222.3L1844 1189.2 1920.9 1223.5 1852.7 1272.9 1758.9 1257.9C1755.8 1257.4 1753 1259.4 1752.5 1262.6 1752 1265.7 1754 1268.5 1757.2 1269L1838.9 1282.9 1805.7 1306.9 1770.7 1301.3C1767.5 1300.8 1764.8 1302.8 1764.3 1306S1765.8 1312 1768.9 1312.5L1792.8 1316.3 1768.8 1333.6C1766.1 1335.6 1765.6 1338.8 1767.6 1341.6 1769.6 1344.3 1772.7 1344.8 1775.5 1342.8L1799.5 1325.5 1795.6 1349.3C1795.4 1350.9 1795.1 1352.5 1796.5 1354.3S1799.4 1356.4 1801 1356.7C1804.2 1357.2 1806.9 1355.2 1807.4 1352L1813 1317.1 1846.2 1293 1833 1375.7C1832.7 1377.2 1832.5 1378.8 1833.8 1380.7 1834.5 1381.6 1836.7 1382.8 1838.3 1383 1841.5 1383.5 1844.3 1381.5 1844.8 1378.4L1859.8 1284.6 1927.9 1235.2 1936.6 1318.9 1877.5 1392.5C1876.4 1394.8 1875.9 1398 1877.2 1399.8 1877.2 1399.8 1877.9 1400.7 1877.9 1400.7 1880.8 1402.8 1884.2 1401.8 1886.1 1400.4L1937.9 1336.2 1942 1376.8 1918.8 1404.8C1917.6 1407.1 1917.1 1410.3 1918.4 1412.1 1918.4 1412.1 1919.1 1413 1919.1 1413 1922 1415.1 1925.4 1414.1 1927.3 1412.7L1942.6 1393.2 1946 1423C1946.7 1424 1946.4 1425.6 1947.1 1426.5 1948.4 1428.3 1950.7 1429.5 1953.2 1429.1 1956.6 1428 1959.4 1426 1958.3 1422.6L1954.9 1392.7 1974.5 1408C1977.4 1410.1 1980.8 1409.1 1982.7 1407.7 1984.8 1404.8 1983.7 1401.4 1982.3 1399.5L1954.3 1376.3 1950.2 1335.7 2014.4 1387.5C2017.3 1389.6 2020.8 1388.6 2022.6 1387.2 2023.4 1382.4 2023.2 1378.4 2020.3 1376.3Z" fill="rgba(250, 143, 17, 1)"></path><path d="M809.1 1294.1L784.4 1240.7 789.7 1225.3 825.4 1219 836.3 1231.5 830.8 1290.2C830.9 1290.9 830.9 1290.9 831.1 1291.6 831.3 1293 832.2 1294.3 834.5 1294.6 836.6 1294.3 837.9 1293.3 838.2 1291.1L842.8 1239.7 859.2 1259.2 857.5 1281.9C857.5 1281.9 857.6 1282.6 857.6 1282.6 857.9 1284 858.8 1285.3 861 1285.6 862.6 1286 864.4 1284.3 864.7 1282.1L866.5 1267.3 878.4 1281.8C879.4 1283.1 881.6 1283.4 883.6 1282.3S885 1278.4 884 1276.5L872.1 1262.7 886.8 1263.7C889 1264 890.8 1262.2 891.2 1260 890.9 1258.6 889.8 1256.6 887.6 1256.3L864.9 1254.6 848.3 1234.4 899.7 1239C901.9 1239.3 903.8 1237.6 904.2 1236 903.9 1233.9 902.8 1232 900.6 1231.6L841.9 1226.9 830.9 1213.7 843.1 1180.4 859.9 1177.5 908.4 1210.7C910.1 1211.9 912.2 1211.5 913.3 1209.9S914.1 1206.1 912.4 1205L869.7 1175.7 895.6 1171.1 913.7 1183.8C915.4 1184.9 917.5 1184.6 919.3 1182.8S920.1 1179 918.5 1177.9L905.4 1169.4 924.3 1166C926.4 1165.7 927.4 1163.3 927.1 1161.2 926.7 1159.1 925 1158 922.9 1158.3L904 1161.7 912.7 1149.3C914.5 1147.5 914.1 1145.4 911.8 1144.4 910.1 1143.3 908 1143.6 906.9 1145.3L894.2 1163.4 868.3 1168 898.4 1125.8C899.5 1124.2 899 1121.4 897.4 1120.2S893.6 1119.5 892.5 1121.1L858.5 1169.8 841.7 1172.7 818.7 1145 824.7 1129.6 878.1 1104.9C880 1103.8 880.4 1101.6 880 1099.5 878.9 1097.5 876.7 1097.2 874.6 1097.6L827.9 1119.6 836.7 1095.6 857.4 1086.2C859.4 1085.1 859.7 1082.9 859.3 1080.8 858.4 1079.5 856 1078.5 854.1 1079.6L840.7 1085.5 846.9 1067.8C847.4 1066.3 846.3 1064.3 844.6 1063.2 842.4 1062.8 840.4 1063.9 840 1065.4L833.8 1083.2 826.9 1069.2C826 1067.9 823.6 1066.9 822.4 1067.8 820.3 1068.2 819.8 1069.7 820.2 1071.8 820.2 1071.8 820.3 1072.5 820.3 1072.5L829.8 1093.3 821 1117.2 799 1070.6C797.9 1068.6 796.3 1067.4 794.3 1068.5 792.3 1069.6 791.9 1071.1 792.1 1072.5 792.3 1073.2 792.3 1073.2 792.3 1073.2L817.7 1127.2 811.8 1142.7 776.1 1149 765.9 1136.4 770.6 1077C771 1075.5 769.2 1073.7 767.7 1073.2 765.5 1072.9 763.6 1074.7 763.3 1076.9L758.7 1128.3 742.2 1108.8 744 1086.1C744.3 1083.9 743.2 1081.9 741.1 1082.3 738.9 1081.9 737.1 1083.7 736.6 1085.2L735.7 1100.6 723.8 1086.1C722.1 1084.9 719.9 1084.6 717.9 1085.7 717.3 1086.5 716.9 1088 717.1 1089.4 717.3 1090.1 717.3 1090.1 718.1 1090.7L730 1105.2 714.7 1104.3C712.5 1104 711.3 1105.6 710.9 1107.1 711 1107.8 711 1107.8 711.1 1108.5 711.4 1109.9 712.3 1111.2 713.9 1111.7L736.6 1113.4 753 1132.9 701.7 1128.3C699.6 1128.7 697.6 1129.7 697.9 1131.8 697.4 1132.7 697.4 1132.7 697.5 1133.4 697.7 1134.8 699.4 1135.9 700.9 1136.4L760.2 1141 770.4 1153.6 758.4 1187.5 742.3 1190.4 693.6 1156.4C692 1155.3 689.2 1155.8 688 1157.4S687.4 1161.9 689 1163L731.8 1192.3 706.6 1196.7 687.7 1184.2C686.1 1183 684 1183.4 682.8 1185.1 681.7 1186.7 682.1 1188.8 683.7 1190L696.1 1198.6 677.2 1202C675.8 1202.2 673.9 1204 674.3 1206.1 674.7 1208.2 677.1 1209.9 678.5 1209.7L697.5 1206.3 688.8 1218.7C688.2 1219.5 687.7 1220.3 687.8 1221 688 1222.4 688.9 1223 689.7 1223.6 691.3 1224.7 693.4 1224.4 694.6 1222.7L708 1204.4 733.2 1200 703.1 1242.1C702.5 1243 702.6 1243.7 702.9 1245.1 703 1245.8 703.1 1246.5 704 1247 705.6 1248.2 708.4 1247.7 709.6 1246.1L743.7 1198.1 759.8 1195.2 782.6 1222.2 777.5 1238.3 723.4 1263.1C722.1 1264 721 1265.7 721.2 1267.1 721.4 1267.8 721.4 1267.8 722.1 1267.7 722.4 1269.8 724.8 1270.8 726.8 1269.7L773.4 1247.7 764.8 1272.4 744.1 1281.8C742.8 1282.8 742.4 1284.3 742.6 1285.7 742.6 1285.7 742.7 1286.4 742.7 1286.4 743.1 1288.5 745.4 1289.5 747.4 1288.4L761.4 1281.6 755.1 1299.3C754.6 1300.2 754.7 1300.9 754.8 1301.6 755.1 1303 756 1304.2 756.7 1304.1 759.1 1305.2 761 1304.1 762.2 1302.4L768.4 1284.7 774.4 1298.1C775.5 1300.1 777.8 1301.1 779.8 1300 781.1 1299.1 782.1 1296.7 781.2 1295.4L771.7 1274.7 780.5 1250.8 802.5 1297.4C803.5 1299.4 805.8 1299.7 807.9 1299.4 809.1 1298.4 810.2 1296.1 809.1 1294.1ZM819.8 1212L792.5 1216.9 788.3 1217.6 785.6 1214.5 768.2 1193.8 765.3 1189.9 766.8 1186.1 776 1160.6 777.5 1156.7 781.7 1156 809 1151.1 813.2 1150.4 815.9 1153.5 833.3 1174.2 836 1177.4 834.7 1181.9 825.5 1207.4 824 1211.3 819.8 1212Z" fill="rgba(250, 143, 17, 1)"></path><path d="M1293.1 551.9L1343.7 476.5 1376.3 470.7 1359.2 496.1C1356.6 498.4 1358 501.7 1360.2 504.3 1362.6 505.3 1366.6 504.7 1367.6 502.4L1391.9 467.8 1423.8 461.2 1412.7 491.9 1374.3 510.1C1374.3 510.1 1373.5 510.9 1373.5 510.9 1371.7 512.4 1371.5 515.6 1372.1 518 1374.4 520.6 1376.7 521.6 1380 520.2L1407.6 506.9 1396.5 537.5 1315.4 577.7C1315.4 577.7 1313.8 577.6 1313.8 577.6 1312.1 579.1 1311.9 582.3 1312.5 584.7 1313.9 588.1 1317.8 589.2 1320.4 586.9L1391.4 552.5 1379 590.3 1347.3 605.8C1347.3 605.8 1347.3 605.8 1346.4 606.5 1344.7 608 1343.7 610.4 1344.4 612.8 1346.6 615.4 1349.7 617.3 1353 615.9L1373.9 605.3 1364.7 632.8C1362.9 635.9 1365.1 638.5 1367.5 639.5 1370.6 641.3 1373.9 640 1375 636L1384.9 609.3 1393.9 630.1C1396.2 632.7 1399.3 634.5 1401.9 632.3 1405.2 630.9 1406.2 628.6 1404.8 625.2L1389.3 593.5 1402.4 556.5 1437.6 628.4C1438.3 630.9 1442.2 632 1445.5 630.6 1447.3 629.1 1449.1 626 1447.7 622.7L1407.6 541.5 1418.6 510.9 1432 538.5C1433.3 541.8 1436.6 542 1439.9 540.6 1442.3 540 1443.4 536.1 1442.8 533.6L1423.7 495.9 1434.1 464.4 1455.7 489.3 1452.7 531.1C1452.4 534.3 1454.7 536.9 1457.9 537.1 1460.2 538.1 1463.7 535.1 1463.9 531.9L1466.1 501.4 1487.7 526.3 1480.4 616.9C1480.2 620.2 1482.4 622.7 1485.6 623 1488.8 623.2 1491.4 621 1491.6 617.7L1498.1 538.4 1523.4 567.6 1520.9 602.9C1520.7 606.1 1522.9 608.7 1526.1 608.9 1529.3 609.2 1531.9 606.9 1532.1 603.7L1534.6 580.5 1553.2 602C1555.5 604.6 1558.7 604.8 1561.3 602.6 1563.8 600.3 1564.1 597.1 1561.8 594.6L1543.2 573.1 1565.7 574.7C1568.9 574.9 1571.5 572.7 1571.7 569.4S1569.7 563.7 1566.5 563.4L1532.8 561 1506.7 530.9 1585.4 536.5C1588.6 536.8 1591.1 534.5 1591.4 531.3 1591.6 528.1 1589.4 525.5 1586.2 525.3L1496.3 518.9 1474.7 493.9 1505.2 496.1C1508.4 496.3 1511 494.1 1511.2 490.9 1511.4 487.7 1509.2 485.1 1506 484.9L1464.3 481.9 1443.4 457.8 1474.5 452 1509.9 475.5C1512.2 476.5 1516.3 475.9 1517.3 473.6 1519.1 470.5 1518.5 468 1516.2 465.5L1490.9 448.3 1521.9 442.5 1597.4 493C1600.4 494.9 1602.9 494.3 1605.5 492 1607.3 488.9 1606 485.6 1604.5 483.9L1538.3 438.8 1577.5 431.9 1606 450.9C1608.3 453.5 1611.6 452.1 1614.2 449.9 1615.1 447.5 1614.6 443.5 1611.5 441.6L1593.1 429 1620.9 422.9C1624.1 423.2 1626 420.1 1625.5 416 1624.8 413.5 1621.7 411.7 1619.3 412.3L1590.7 417.6 1604.1 398.4C1606 395.3 1604.6 391.9 1602.2 391 1600 388.4 1597.5 389 1595.8 390.5 1595 391.2 1595 391.2 1594.1 392L1575.1 420.5 1535.9 427.3 1580.1 361.9C1582.7 359.7 1581.3 356.4 1579.1 353.8 1576.8 352.8 1574.3 353.5 1572.6 355 1571.7 355.7 1571.7 355.7 1571.7 355.7L1519.5 431 1488.5 436.8 1505.6 411.5C1507.4 408.4 1506.8 405.9 1504.6 403.3 1502.2 402.3 1499 402.1 1497.3 403.6 1496.4 404.3 1496.4 404.3 1495.6 405.1L1472.1 440.5 1441 446.3 1451.2 416.4 1488.9 397.4C1492.2 396 1493.3 392 1492.7 389.6 1490.4 387 1487.3 385.1 1484.7 387.4L1457.2 400.7 1466.6 369.9 1549.4 329.9C1551.8 329.3 1552.9 325.3 1552.3 322.8 1550 320.3 1547 318.4 1543.6 319.8L1472.6 354.2 1485.7 317.3 1516.6 302.5C1520 301.2 1521 297.2 1518.8 294.6 1518.2 292.2 1515.1 290.3 1511.8 291.7L1490.8 302.3 1500.1 274.7C1501.1 272.4 1499.7 269.1 1496.6 267.2 1495 267.1 1492.5 267.7 1490.8 269.2 1490.8 269.2 1489.9 270 1489.1 270.7L1479.8 298.3 1469.2 277.4C1468.6 274.9 1464.7 273.8 1462.2 274.4 1461.3 275.2 1461.3 275.2 1461.3 275.2 1458.7 277.4 1458.5 280.6 1460 282.4L1474.7 313.3 1462.3 351.1 1427.2 279.2C1424.9 276.6 1422.6 275.6 1419.3 277 1419.3 277 1418.4 277.8 1418.4 277.8 1416.7 279.3 1415.7 281.6 1417.1 284.9L1456.4 366.8 1446.2 396.7 1432.8 369.1C1430.6 366.6 1427.5 364.7 1424.9 367 1424.2 366.1 1423.3 366.8 1423.3 366.8 1421.6 368.3 1421.3 371.5 1422 374L1441.1 411.7 1430 442.3 1409.1 418.3 1412.1 376.5C1412.4 373.3 1409.4 369.9 1406.2 369.6 1403.7 370.3 1401.1 372.5 1400.1 374.9L1398.7 406.2 1377.1 381.3 1383.5 291.4C1383.8 288.2 1381.5 285.6 1378.3 285.4 1375.1 285.1 1372.5 287.4 1372.3 290.6L1366.7 369.2 1340.6 339.1 1343 305.4C1343.2 302.2 1341 299.6 1337.8 299.4S1332 301.4 1331.8 304.6L1330.2 327.1 1311.5 305.6C1309.3 303 1306.1 302.8 1303.5 305 1300.9 307.3 1300.7 310.5 1302.9 313L1321.6 334.5 1298.2 333.7C1296.6 333.6 1295 333.4 1294.2 334.2 1293.3 334.9 1292.3 337.3 1292.2 338.9 1292 342.1 1294.2 344.7 1297.4 344.9L1332 346.6 1358.1 376.7 1278.6 371.8C1277 371.7 1275.4 371.6 1274.5 372.3 1273.6 373 1272.7 375.4 1272.5 377 1272.3 380.2 1274.5 382.8 1277.8 383L1368.5 388.7 1390.1 413.7 1358.9 410.6C1357.3 410.5 1355.5 412 1354.7 412.7 1353.8 413.5 1353 414.2 1352.8 415.8 1352.6 419 1355.6 422.5 1358.1 421.9L1400.5 425.7 1421.4 449.8 1389.5 456.4 1354.9 432.1C1352.6 431.1 1349.3 430.9 1347.6 432.4 1346.8 433.1 1346.8 433.1 1347.5 434 1344.9 436.2 1345.4 440.3 1348.5 442.1L1373.9 459.3 1342 465.9 1266.7 413.7C1264.3 412.7 1261.9 413.3 1260.2 414.8 1259.3 415.6 1259.3 415.6 1259.3 415.6 1257.5 418.7 1257.2 421.9 1260.3 423.7L1326.5 468.8 1287.3 475.7 1258.8 456.7C1255.7 454.8 1253.2 455.5 1251.5 457 1251.5 457 1250.6 457.7 1250.6 457.7 1248.8 460.8 1250.2 464.1 1251.7 465.8L1271.7 478.6 1243.1 483.8C1242.3 484.5 1241.4 485.3 1240.5 486 1239.7 486.8 1238.7 489.1 1238.6 490.7 1240 494 1242.2 496.6 1245.5 495.2L1274.1 490 1260.6 509.2C1258.8 512.3 1260.2 515.7 1261.7 517.4 1264.8 519.2 1268.1 517.8 1270.7 515.6L1289.7 487.1 1328.1 479.4 1283.9 544.8C1282.1 547.9 1282.6 551.9 1284.9 552.9 1288 554.8 1291.2 555 1293.1 551.9Z" fill="rgba(250, 143, 17, 1)"></path><path d="M2204.8 332.4L2251.2 296 2303.4 302.6 2271.6 344.5 2213.1 352.1C2213.1 352.1 2212.4 352.4 2212.4 352.4 2211.1 352.9 2210.4 354.8 2210.3 356.4 2210.4 358.6 2212.6 360 2214.5 359.2L2265.7 352.4 2250.3 372.7 2227.8 376C2227.8 376 2227.1 376.3 2227.1 376.3 2225.8 376.8 2225 378.7 2224.9 380.3 2225.1 382.5 2227.2 383.9 2229.2 383.1L2244.6 381.3 2233.1 396.1C2232.1 397.3 2232.5 400.2 2233.8 401.3 2235.2 402.9 2237.9 401.8 2238.9 400.6L2250.4 385.8 2252.2 401.2C2252.4 403.4 2254.5 404.9 2256.5 404 2258.8 403.9 2260.2 401.7 2259.3 399.8L2256.1 377.2 2271.7 357.5 2278.5 408.7C2278.7 410.9 2280.8 412.3 2282.8 411.5 2285 411.3 2286.5 409.2 2285.6 407.2L2278 348.7 2309.8 306.8 2330.4 356 2308 410.9C2307.2 412.8 2308.1 414.8 2309.9 415.5 2311.8 416.3 2313.8 415.5 2314.5 413.6L2334.3 365.2 2344.2 388.8 2335.8 409.3C2335.1 411.1 2335.9 413.1 2337.8 413.9 2339.6 414.6 2341.6 413.8 2342.4 411.9L2348.1 398 2355.8 416.3C2356 418.6 2358.5 419 2360.4 418.2 2362.4 417.4 2363.2 415.5 2362.3 413.6L2355.2 396.5 2369.1 402.2C2371 403 2373 402.1 2373.7 400.3S2373.7 396.5 2371.8 395.7L2351.3 387.3 2341.4 363.7 2389.8 383.5C2391.7 384.3 2393.6 383.4 2394.4 381.6 2395.2 379.7 2394.3 377.7 2392.5 377L2337.5 354.6 2317.2 306 2369.3 312.7 2404.6 358C2406 359.7 2408.3 359.5 2410.3 358.7 2411.9 357.2 2411.8 355 2410.9 353L2379.2 312.4 2404.5 315.6 2418.3 333.7C2419.8 335.4 2422 335.3 2424 334.4 2425.7 333 2425.5 330.7 2424.9 329.4L2415.2 317.3 2433.9 319.5C2435.5 319.6 2438.1 318.5 2437.9 316.2 2437.7 314 2436.9 312 2434.7 312.2L2416 310 2428.1 300.3C2429.8 298.8 2429.7 296.6 2429.1 295.3 2427.9 294.2 2426 293.5 2424.7 294 2424.7 294 2424.1 294.3 2424.1 294.3L2405.9 308.1 2380.7 304.8 2421.3 273.1C2423 271.6 2422.8 269.4 2422.3 268 2421.1 267 2419.2 266.2 2417.9 266.8 2417.9 266.8 2417.3 267.1 2417.3 267.1L2370.9 303.5 2318.7 296.9 2350.5 255 2409 247.4C2411.2 247.2 2412.7 245.1 2411.8 243.1 2411.7 240.9 2409.5 239.5 2407.6 240.3L2356.4 247.1 2371.8 226.8 2394.3 223.5C2396.6 223.3 2398 221.2 2397.2 219.2 2397 217 2394.8 215.6 2392.9 216.4L2377.5 218.2 2389 203.4C2390 202.2 2389.5 199.3 2388.3 198.2 2387.1 197.2 2385.5 197.1 2384.2 197.6 2383.6 197.9 2382.9 198.2 2382.5 199.1L2371 214 2369.2 198.6C2369 196.3 2366.9 194.9 2364.9 195.7 2364.9 195.7 2364.3 196 2364.3 196 2362.9 196.6 2362.2 198.4 2362.1 200L2365.4 222.5 2350 242.9 2343.2 191.7C2343 189.5 2340.9 188.1 2338.9 188.9 2338.9 188.9 2338.3 189.2 2338.3 189.2 2336.9 189.7 2336.2 191.6 2336.1 193.2L2343.7 251.7 2311.9 293.6 2291.5 245.1 2314 190.1C2314.7 188.3 2313.9 186.3 2312 185.6 2310.2 184.8 2308.2 185.6 2307.5 187.5L2287.4 235.2 2277.5 211.6 2285.9 191.2C2286.6 189.3 2285.8 187.3 2283.9 186.6S2280.1 186.6 2279.3 188.5L2273.6 202.5 2266.5 185.4C2265.7 183.4 2263.8 182.7 2261.8 183.5 2259.9 184.3 2259.1 186.2 2259.9 188.2L2267.1 205.2 2253.1 199.5C2252.2 199.1 2251.3 198.7 2249.9 199.3S2248.3 200.8 2247.9 201.7C2247.1 203.6 2247.9 205.5 2249.8 206.3L2270.3 214.7 2280.2 238.3 2231.8 218.5C2230.9 218.1 2229.9 217.7 2228.6 218.3 2228 218.6 2226.9 219.8 2226.5 220.7 2225.8 222.6 2226.6 224.5 2228.5 225.3L2283.4 247.7 2303.8 296.2 2251.6 289.6 2215.2 243.2C2214 242.2 2212.1 241.4 2210.8 242 2210.8 242 2210.1 242.2 2210.1 242.2 2208.4 243.7 2208.6 246 2209.2 247.3L2240.9 287.9 2215.6 284.7 2201.8 266.6C2200.6 265.5 2198.8 264.8 2197.5 265.3 2197.5 265.3 2196.8 265.6 2196.8 265.6 2195.1 267.1 2195.3 269.3 2195.8 270.6L2205.6 282.7 2186.9 280.6C2186.2 280.8 2185.3 280.5 2184.7 280.7 2183.3 281.3 2182.3 282.5 2182.2 284.1 2182.4 286.3 2183.2 288.3 2185.4 288.1L2204.1 290.3 2192 300C2190.3 301.5 2190.5 303.7 2191 305 2192.5 306.7 2194.7 306.6 2196.1 306L2214.2 292.2 2239.5 295.5 2198.8 327.2C2197.1 328.7 2197.3 331 2197.8 332.3 2200.6 333.4 2203.1 333.9 2204.8 332.4Z" fill="rgba(250, 143, 17, 1)"></path><path d="M2429.8 1491.3L2404.1 1416.1 2417.4 1390.3 2426 1415.7C2426.2 1418.7 2429.2 1419.5 2432.2 1419.3 2434.1 1418.2 2435.9 1415.1 2434.8 1413.1L2423.6 1377.9 2435.9 1352.2 2451.4 1376.2 2443.8 1412.6C2443.8 1412.6 2443.8 1413.6 2443.8 1413.6 2443.9 1415.6 2446.1 1417.4 2448.1 1418.3 2451.1 1418.1 2453 1417 2453.8 1413.9L2459.1 1387.7 2474.6 1411.6 2459.6 1489.4C2459.6 1489.4 2458.7 1490.4 2458.7 1490.4 2458.8 1492.4 2460.9 1494.3 2463 1495.1 2466 1495.9 2468.9 1493.8 2468.7 1490.8L2482.3 1423.1 2502.1 1451.7 2496.1 1482.1C2496.1 1482.1 2496.1 1482.1 2496.1 1483.1 2496.3 1485 2497.4 1487 2499.4 1487.8 2502.4 1487.6 2505.3 1486.5 2506.1 1483.4L2509.8 1463.2 2524.1 1484.3C2525.3 1487.2 2528.3 1487 2530.2 1485.9 2533.1 1484.7 2533.9 1481.6 2531.8 1478.8L2518.5 1457.7 2537.7 1462.4C2540.7 1462.3 2543.6 1461.1 2543.4 1458.1 2544.2 1455 2543.1 1453.1 2540.1 1452.3L2509.7 1446.3 2491 1417.5 2559.7 1431.1C2561.7 1432 2564.6 1429.8 2565.4 1426.8 2565.2 1424.8 2564.1 1421.9 2561 1421.1L2483.2 1406.1 2467.7 1382.1 2494 1387.4C2497.1 1388.2 2498.9 1386.1 2499.7 1383.1 2500.6 1381 2498.4 1378.2 2496.4 1377.3L2460 1370.6 2443.5 1346.7 2472.4 1344.9 2499.8 1369.1C2501.9 1371 2504.9 1370.8 2506.8 1368.6 2508.7 1367.5 2508.5 1363.6 2506.3 1361.7L2486.3 1344 2515.1 1342.2 2574.3 1395.3C2576.4 1397.1 2579.4 1396.9 2581.3 1394.8 2583.1 1392.7 2583 1389.7 2580.8 1387.9L2529 1341.3 2562.8 1339.1 2586 1359.6C2588.1 1361.5 2591.1 1361.3 2593 1359.2 2594.8 1357 2594.6 1354.1 2592.5 1352.2L2577.7 1338.2 2602.5 1336.6C2605.5 1336.4 2607.3 1334.3 2607.2 1331.3 2607 1328.3 2604.9 1326.5 2601.9 1326.7L2577 1328.3 2590.1 1313.5C2591.9 1311.3 2591.7 1308.4 2589.6 1306.5S2584.5 1304.8 2582.7 1306.9L2563.1 1329.1 2528.4 1331.4 2573.9 1279.6C2575.8 1277.5 2575.6 1274.5 2573.5 1272.6 2571.4 1270.8 2568.4 1270.9 2566.5 1273.1L2514.4 1332.2 2485.6 1334.1 2503.3 1314C2505.2 1311.9 2505 1308.9 2502.9 1307 2500.7 1305.2 2497.8 1305.4 2495.9 1307.5L2471.7 1335 2443.9 1336.7 2456.3 1312 2491.4 1299.8C2493.3 1298.7 2495.1 1295.6 2494 1293.6 2492.8 1290.7 2490.8 1289.9 2487.8 1290.1L2462.4 1298.7 2474.8 1273.9 2550 1248.2C2552.9 1247 2553.8 1244.9 2553.6 1242 2552.4 1239 2549.3 1238.2 2547.4 1238.4L2480.9 1260.6 2496.9 1229.6 2525.2 1219.8C2528.2 1219.6 2529 1216.6 2528.8 1213.6 2527.7 1211.7 2524.6 1209.9 2521.7 1211.1L2503.1 1217.3 2513.6 1194.6C2515.5 1192.5 2514.3 1189.6 2511.2 1187.8 2509.2 1186.9 2506.2 1188.1 2505.4 1190.2L2493.9 1212.9 2487.6 1193.3C2486.4 1190.4 2483.4 1189.6 2481.5 1190.7 2478.5 1190.9 2477.6 1192.9 2477.8 1194.9 2477.8 1195.9 2477.8 1195.9 2477.9 1196.9L2487.7 1225.2 2471.7 1256.2 2449.6 1190.7C2449.4 1187.8 2446.3 1187 2443.3 1187.1 2441.4 1188.3 2440.5 1190.3 2440.7 1192.3 2440.7 1193.3 2440.7 1193.3 2440.7 1193.3L2465.6 1269.5 2453.2 1294.3 2444.6 1268.9C2443.4 1266 2441.3 1265.1 2438.3 1265.3 2436.4 1266.4 2434.6 1268.5 2434.7 1270.5 2434.8 1271.5 2434.8 1271.5 2434.8 1272.5L2447 1307.6 2434.6 1332.4 2419.2 1309.4 2425.9 1273.1C2426.7 1270 2424.5 1267.2 2422.4 1266.3 2419.5 1266.5 2416.6 1267.7 2416.7 1270.6L2411.4 1296.9 2395 1274 2410.9 1195.2C2411.8 1193.1 2409.6 1190.3 2407.6 1189.4 2404.6 1189.6 2401.7 1190.8 2400.9 1193.8L2387.2 1261.6 2368.4 1232.8 2374.5 1203.5C2375.4 1200.5 2373.2 1197.6 2370.2 1197.8 2368.1 1196.9 2365.2 1198.1 2364.4 1201.2L2360.7 1221.3 2346.4 1200.3C2345.3 1198.4 2342.2 1197.6 2339.3 1198.8 2338.4 1199.8 2337.5 1201.9 2337.7 1203.9 2337.7 1203.9 2337.7 1204.9 2337.8 1205.9L2352.1 1226.9 2331.9 1223.2C2329.9 1222.3 2327 1224.5 2326.1 1226.5 2326.2 1227.5 2326.2 1227.5 2326.2 1227.5 2326.4 1230.5 2328.5 1232.4 2330.5 1232.3L2359.8 1238.4 2379.6 1267 2310.9 1253.5C2307.9 1253.6 2306 1254.8 2305.2 1257.8 2305.2 1257.8 2305.3 1258.8 2305.3 1258.8 2305.4 1260.8 2306.5 1262.7 2309.5 1263.5L2387.4 1279.5 2402.8 1302.5 2376.5 1297.2C2373.6 1297.3 2370.6 1298.5 2370.8 1301.5 2369.8 1301.6 2369.9 1302.6 2369.9 1302.6 2370 1304.6 2372.1 1306.4 2374.2 1307.3L2410.5 1313.9 2426 1337.9 2398.2 1339.7 2370.7 1315.5C2368.6 1313.6 2364.6 1313.9 2362.8 1316 2361.9 1318 2362.1 1321 2363.2 1322.9L2384.3 1340.6 2355.5 1342.4 2296.3 1290.3C2294.2 1288.4 2291.2 1288.6 2289.3 1290.7 2287.5 1292.9 2287.7 1295.8 2289.8 1297.7L2341.6 1343.3 2306.8 1345.5 2284.6 1326C2282.5 1324.1 2279.5 1324.3 2277.6 1326.4S2276 1331.5 2278.1 1333.4L2292.9 1346.4 2268 1348C2265.1 1348.2 2263.2 1350.3 2263.4 1353.3 2263.6 1356.2 2265.7 1358.1 2268.7 1357.9L2293.5 1356.3 2280.6 1372.1C2279.6 1373.2 2278.7 1374.2 2278.8 1375.2 2278.8 1376.2 2279.9 1378.1 2281 1379.1 2283.1 1380.9 2286.1 1380.7 2288 1378.6L2307.4 1355.4 2342.2 1353.2 2296.7 1406C2295.8 1407.1 2294.8 1408.1 2294.9 1409.1 2295 1410.1 2296.1 1412 2297.1 1412.9 2299.2 1414.8 2302.2 1414.6 2304.1 1412.5L2356.1 1352.3 2384.9 1350.5 2366.3 1370.6C2365.3 1371.7 2365.5 1373.7 2365.5 1374.7 2365.6 1375.7 2365.6 1376.7 2366.7 1377.6 2368.8 1379.4 2372.8 1379.2 2373.7 1377.1L2398.8 1349.6 2426.7 1347.8 2414.3 1373.5 2379.1 1384.8C2377.2 1385.9 2375.3 1388 2375.5 1390 2375.5 1391 2375.5 1391 2376.5 1390.9 2376.7 1393.9 2379.8 1395.7 2382.7 1394.5L2408.1 1385.9 2395.8 1411.6 2319.6 1436.5C2317.7 1437.6 2316.8 1439.6 2316.9 1441.6 2317 1442.6 2317 1442.6 2317 1442.6 2318.2 1445.5 2320.3 1447.4 2323.2 1446.2L2389.6 1424 2373.6 1455 2345.3 1464.7C2342.4 1465.9 2341.5 1468 2341.7 1470 2341.7 1470 2341.7 1471 2341.7 1471 2342.9 1473.9 2346 1474.7 2347.9 1474.5L2367.4 1467.3 2355.9 1490C2356 1491 2356 1492 2356.1 1493 2356.2 1494 2357.3 1495.9 2358.3 1496.8 2361.4 1497.6 2364.4 1497.4 2365.2 1494.4L2376.7 1471.7 2382.9 1491.3C2384.1 1494.2 2387.2 1495 2389.1 1494.9 2392.1 1493.7 2392.9 1490.6 2392.7 1487.7L2382.9 1459.4 2397.9 1428.5 2420 1493.9C2421.2 1496.8 2424.3 1498.6 2426.2 1497.5 2429.1 1496.3 2431 1494.2 2429.8 1491.3Z" fill="rgba(250, 143, 17, 1)"></path><path d="M526.4 1051.2L501.6 1053.6 507.3 1039.7C508 1038.3 507.3 1036.1 505.5 1034.8 503.5 1034.5 501.4 1035.2 501 1037.2L493.3 1054.3 474.1 1057 490.2 1021.3C490.6 1019.3 489.9 1017.2 488.4 1016.5 486 1015.6 483.9 1016.3 483.6 1018.3L465.9 1057.8 436.4 1060.9 453.6 1031.5 420.4 1039.1 432.2 1011.9 475.2 1006.8C475.6 1007.4 476.2 1007 476.7 1006.5 477.9 1005.7 478.6 1004.3 478.3 1002.7 478.1 1001.1 476.2 999.8 474.2 999.5L435.4 1004.3 443.6 986.7 462.3 984.5C463.3 984.6 463.9 984.2 464.4 983.8 465 983.4 465.7 982 465.5 980.4 465.2 978.8 463.4 977.5 461.8 977.8L446.8 979.1 456.4 956.1C457.7 954.3 456.5 952.6 454.6 951.3 453.2 950.6 451.1 951.3 450.2 953.7L440.2 976 431.3 964C430.1 962.3 427.5 962.4 426.4 963.2 424.6 964.5 424.3 966.5 425.6 968.2L437 983.7 428.7 1001.2 406 970.3C404.7 968.6 402.7 968.3 401 969.6 399.8 970.4 399 972.8 400.2 974.5L425.5 1008.9 413.7 1036.1 396.8 1007.1 386.8 1039.1 369.1 1015 386.3 976C387.2 973.5 385.9 971.8 384.5 971.1 383.1 970.4 380.9 971.1 379.6 972.9L364.5 1008.7 353.1 993.3 360.4 975.6C361.7 973.7 361 971.6 358.6 970.7 357.2 970 355 970.7 354.2 973.1L348.1 986.4 333.3 966.4C332.1 964.6 330.1 964.3 328.3 965.6S326.3 968.8 327.6 970.6L342.3 990.6 327.8 992.5C325.2 992.6 324 994.4 324.2 996 324.3 998.6 326.2 999.9 328.3 999.2L347.4 997.5 358.8 1013 320 1016.7C317.9 1017.4 316.6 1019.2 316.9 1020.8 317 1023.4 318.8 1024.7 321 1024L363.4 1019.3 381.1 1043.3 347.5 1043.3 370.2 1068.1 340.7 1071.2 315.4 1036.9C314.2 1035.2 311.6 1035.3 310.5 1036.1 308.8 1037.4 308.5 1039.4 309.7 1041.1L332.9 1072.6 313.2 1074.7 301.9 1059.2C300.6 1057.5 298.6 1057.2 296.9 1058.5 295.7 1059.3 294.9 1061.7 296.1 1063.4L305 1075.5 280.6 1078.4C278.1 1078.5 276.8 1080.3 277.5 1082.5 277.7 1084 279 1085.7 281.1 1085.1L305.9 1082.7 300.2 1096.6C299.5 1098 300.2 1100.2 301.6 1100.9 303 1101.6 304.6 1101.3 305.2 1100.9 305.7 1100.5 306.3 1100.1 306.5 1099.1L314.2 1081.9 333.4 1079.3 317.3 1115C317 1117 317.7 1119.1 319.1 1119.8 320.5 1120.6 322.1 1120.3 323.2 1119.4 323.8 1119 323.8 1119 323.9 1118L341.6 1078.5 371.1 1075.4 353.9 1104.8 387.1 1097.1 375.4 1124.3 332.3 1129.5C330.8 1129.8 329.1 1131 329.2 1133.6 329.5 1135.1 331.3 1136.4 333.3 1136.7L372.1 1132 363.9 1149.5 345.2 1151.8C343.2 1151.5 341.9 1153.3 342.1 1155.9 342.3 1157.5 344.2 1158.7 346.2 1159.1L360.7 1157.2 351.1 1180.1C349.8 1182 351 1183.7 352.9 1185 353.9 1185.2 355.4 1184.9 356 1184.5 356.6 1184 357.2 1183.6 357.3 1182.6L367.3 1160.2 376.2 1172.3C377.4 1174 380 1173.9 381.2 1173L381.2 1173C382.9 1171.8 383.2 1169.8 381.9 1168.1L370.5 1152.6 378.8 1135 401.6 1166C402.8 1167.7 404.8 1168 406.5 1166.7S408.5 1163.5 407.3 1161.8L382 1127.4 393.8 1100.2 410.7 1129.2 420.7 1097.2 438.4 1121.2 421.2 1160.3C420.4 1162.7 421.6 1164.5 423 1165.2 424.5 1165.9 426.6 1165.2 427.9 1163.4L443.4 1128.1 454.4 1143 447.1 1160.7C445.8 1162.6 446.5 1164.7 448.9 1165.6 450.3 1166.3 452.5 1165.6 453.8 1163.8L459.5 1149.9 474.2 1169.9C475.5 1171.6 477.4 1172 479.2 1170.7S481.2 1167.4 479.9 1165.7L465.2 1145.7 479.7 1143.8C480.7 1144 481.3 1143.5 481.8 1143.1 483 1142.3 483.1 1141.3 483.3 1140.3 483.2 1137.7 481.3 1136.4 479.2 1137.1L460.1 1138.8 448.8 1123.3 487.5 1119.6C488 1119.1 488.6 1118.7 489.2 1118.3 490.3 1117.5 490.5 1116.5 490.6 1115.5 490.5 1112.9 488.7 1111.6 486.5 1112.3L444.1 1117 426.4 1093 460 1093 437.3 1068.2 466.8 1065 492.1 1099.4C493.3 1101.1 495.9 1101 497 1100.2 498.8 1098.9 499.1 1096.9 497.8 1095.2L475.1 1064.3 494.3 1061.6 505.7 1077.1C506.9 1078.8 508.9 1079.1 510.6 1077.8S512.6 1074.6 511.4 1072.9L502.5 1060.8 526.9 1057.9C527.9 1058.1 528.4 1057.7 529 1057.2 529.6 1056.8 530.3 1055.4 530 1053.8 529.8 1052.3 528.5 1050.5 526.4 1051.2ZM444.3 1086L416.8 1085.9 408.7 1112.1 394.6 1088.1 368.2 1094.3 381.5 1070.4 363.2 1050.3 390.7 1050.4 398.8 1024.1 412.5 1047.6 439.3 1042 425.5 1065.4 444.3 1086Z" fill="rgba(255, 255, 255, 1)"></path></g><defs><mask id="SvgjsMask1044"><rect width="2560" height="1440" fill="#ffffff"></rect></mask><filter id="SvgjsFilter1045"><feGaussianBlur stdDeviation="1"></feGaussianBlur></filter></defs></svg>